#!OML:ASF I:\golf\golf\golf 2\Subject 1\2002-09-07\Subject1.ASF
:FULLY-SPECIFIED
:DEGREES
463
root -5.72115 18.217 -2.28377 -163.857 22.8869 -174.372
lowerback -3.83475 8.55318 3.43761
upperback -4.05771 11.9068 3.6066
thorax -2.18567 6.13553 2.03988
lowerneck -19.9372 -4.30249 1.12497
upperneck 11.0419 -6.04182 -0.328727
head 6.54826 -2.89724 -0.959752
rclavicle -8.40859e-014 -2.22639e-014
rhumerus 10.2211 34.2522 -96.8119
rradius 28.2018
rwrist -22.7291
rhand -23.4462 8.16325
rfingers 7.12502
rthumb 3.01216 -21.7952
lclavicle -8.40859e-014 -2.22639e-014
lhumerus 0.563065 -25.0396 98.9458
lradius 37.4165
lwrist 40.6674
lhand -20.5079 36.3938
lfingers 7.12502
lthumb -174.151 -113.707
rfemur 1.30066 -6.35677 17.8209
rtibia 26.503
rfoot 13.0726 -23.0819
rtoes 8.38475
lfemur -26.5939 -13.2691 -10.2729
ltibia 19.999
lfoot 10.9158 -38.4388
ltoes 22.9174
464
root -5.72152 18.221 -2.29107 -163.84 23.2524 -174.302
lowerback -3.97441 8.55841 3.40121
upperback -4.04702 11.9085 3.64532
thorax -2.11342 6.14049 2.12207
lowerneck -19.9541 -4.26337 1.07159
upperneck 11.1586 -5.99754 -0.197775
head 6.59556 -2.86472 -0.907051
rclavicle -1.963e-014 6.36111e-015
rhumerus 9.33486 35.1324 -96.4843
rradius 29.498
rwrist -23.1599
rhand -23.0949 7.27034
rfingers 7.12502
rthumb 3.35147 -22.6831
lclavicle -1.963e-014 6.36111e-015
lhumerus -0.188561 -26.3721 98.6408
lradius 38.4053
lwrist 41.5082
lhand -19.399 36.9974
lfingers 7.12502
lthumb -173.08 -113.136
rfemur 1.28304 -6.22675 17.71
rtibia 26.4403
rfoot 13.2906 -22.9391
rtoes 8.50251
lfemur -26.4892 -13.3509 -10.2815
ltibia 20.0566
lfoot 10.2527 -38.0982
ltoes 22.4311
465
root -5.71906 18.2238 -2.29117 -163.884 23.6528 -174.201
lowerback -4.07157 8.52581 3.29469
upperback -3.96446 11.8583 3.75004
thorax -2.01632 6.12118 2.30412
lowerneck -19.9991 -4.20213 0.978054
upperneck 11.1967 -5.91319 -0.0622195
head 6.62342 -2.81534 -0.841257
rclavicle 7.06183e-014 -4.45278e-014
rhumerus 8.47965 35.9159 -96.2491
rradius 30.7558
rwrist -23.4117
rhand -22.3465 6.77824
rfingers 7.12502
rthumb 4.07419 -23.1625
lclavicle 7.06183e-014 -4.45278e-014
lhumerus -0.822937 -27.6209 98.2134
lradius 39.492
lwrist 42.8737
lhand -18.3676 37.7773
lfingers 7.12502
lthumb -172.084 -112.391
rfemur 1.33187 -6.03502 17.6485
rtibia 26.406
rfoot 13.4985 -22.8034
rtoes 8.57907
lfemur -26.2883 -13.283 -10.278
ltibia 20.1089
lfoot 9.88728 -37.8763
ltoes 22.7858
466
root -5.71548 18.2247 -2.28805 -163.978 24.0574 -174.166
lowerback -4.28521 8.46294 3.11809
upperback -3.7463 11.741 3.85117
thorax -1.72396 6.06607 2.55098
lowerneck -20.1589 -4.04762 0.971187
upperneck 11.1558 -5.71416 -0.0117217
head 6.63941 -2.71546 -0.804751
rclavicle 4.75592e-014 1.43125e-014
rhumerus 7.88071 36.7322 -95.9541
rradius 31.9354
rwrist -23.4923
rhand -21.556 6.42179
rfingers 7.12502
rthumb 4.83747 -23.503
lclavicle 4.75592e-014 1.43125e-014
lhumerus -1.29196 -28.6025 97.676
lradius 40.7211
lwrist 44.4707
lhand -17.5879 38.5075
lfingers 7.12502
lthumb -171.332 -111.69
rfemur 1.39446 -5.78379 17.5499
rtibia 26.3979
rfoot 13.5563 -22.7689
rtoes 8.97748
lfemur -26.0682 -13.1755 -10.3352
ltibia 20.1582
lfoot 9.53032 -37.7343
ltoes 23.0355
467
root -5.71374 18.2274 -2.28599 -164.057 24.4027 -174.162
lowerback -4.66039 8.29791 2.91777
upperback -3.51277 11.4786 3.95831
thorax -1.32723 5.93863 2.84018
lowerneck -20.1422 -3.75475 1.20606
upperneck 11.0734 -5.35513 -0.092355
head 6.60384 -2.52478 -0.824058
rclavicle 1.39646e-013 7.31528e-014
rhumerus 7.26662 38.0417 -95.6755
rradius 33.2153
rwrist -24.1829
rhand -21.1794 5.82879
rfingers 7.12502
rthumb 5.2011 -24.0874
lclavicle 1.39646e-013 7.31528e-014
lhumerus -1.86169 -29.2245 97.109
lradius 41.8824
lwrist 45.8988
lhand -16.9048 38.726
lfingers 7.12502
lthumb -170.673 -111.5
rfemur 1.40818 -5.58463 17.4383
rtibia 26.4144
rfoot 13.4148 -22.9332
rtoes 10.1352
lfemur -25.9015 -13.1987 -10.386
ltibia 20.2169
lfoot 8.56647 -37.6512
ltoes 21.9867
468
root -5.71388 18.2318 -2.2864 -164.117 24.7139 -174.179
lowerback -4.28617 8.09598 2.86763
upperback -4.04519 11.2821 3.81865
thorax -2.06193 5.84342 2.60401
lowerneck -19.1072 -3.44946 1.84489
upperneck 11.2074 -5.08857 -0.199647
head 6.46292 -2.38235 -0.911441
rclavicle -7.84206e-014 -4.92986e-014
rhumerus 5.21186 38.284 -97.0565
rradius 34.0593
rwrist -24.8406
rhand -20.2931 5.41858
rfingers 7.12502
rthumb 6.05686 -24.4748
lclavicle -7.84206e-014 -4.92986e-014
lhumerus -3.93688 -30.3269 96.8361
lradius 42.9592
lwrist 47.4143
lhand -16.4983 37.9847
lfingers 7.12502
lthumb -170.281 -112.26
rfemur 1.38879 -5.54507 17.2839
rtibia 26.4467
rfoot 13.1666 -23.163
rtoes 11.8074
lfemur -25.7849 -13.3859 -10.4225
ltibia 20.2819
lfoot 7.35737 -37.5025
ltoes 20.6061
469
root -5.71258 18.2349 -2.28808 -164.098 25.097 -174.202
lowerback -4.38601 8.18917 2.74862
upperback -3.83482 11.3784 3.8659
thorax -1.82241 5.8909 2.75229
lowerneck -19.9354 -3.50043 1.48733
upperneck 11.5504 -5.09634 -0.111536
head 6.72065 -2.38556 -0.849435
rclavicle 5.46658e-016 -2.22639e-014
rhumerus 4.80072 38.2773 -96.517
rradius 35.0275
rwrist -25.904
rhand -19.0609 5.15285
rfingers 7.12502
rthumb 7.24636 -24.7031
lclavicle 5.46658e-016 -2.22639e-014
lhumerus -4.58801 -32.6006 96.7076
lradius 43.9373
lwrist 48.4706
lhand -16.9493 35.7464
lfingers 7.12502
lthumb -170.716 -114.478
rfemur 1.28233 -5.5148 17.1062
rtibia 26.472
rfoot 13.2908 -23.0787
rtoes 12.1846
lfemur -25.7477 -13.4631 -10.4688
ltibia 20.3514
lfoot 6.76829 -37.2651
ltoes 20.4809
470
root -5.71015 18.2366 -2.28804 -164.034 25.5313 -174.119
lowerback -4.48318 8.2002 2.70639
upperback -3.76233 11.3835 3.92085
thorax -1.71305 5.89531 2.85247
lowerneck -20.1653 -3.42825 1.34613
upperneck 11.6544 -4.97826 -0.0325343
head 6.79905 -2.32533 -0.794431
rclavicle 1.50182e-013 7.15625e-014
rhumerus 4.05379 38.2698 -96.5156
rradius 35.8048
rwrist -27.0699
rhand -17.9508 5.24147
rfingers 7.12502
rthumb 8.31785 -24.5748
lclavicle 1.50182e-013 7.15625e-014
lhumerus -5.54862 -33.7539 96.6238
lradius 45.2962
lwrist 49.8961
lhand -16.3874 36.2883
lfingers 7.12502
lthumb -170.174 -113.961
rfemur 1.16784 -5.31185 17.0557
rtibia 26.4999
rfoot 13.3574 -23.0635
rtoes 12.2698
lfemur -25.6888 -13.3919 -10.4333
ltibia 20.4274
lfoot 6.34212 -37.0895
ltoes 20.4469
471
root -5.70737 18.2393 -2.28356 -164.029 25.9098 -174.003
lowerback -4.48214 8.11204 2.68511
upperback -3.74187 11.2649 3.97729
thorax -1.70369 5.83707 2.91851
lowerneck -20.0712 -3.24854 1.42687
upperneck 11.5479 -4.75071 -0.0554175
head 6.74856 -2.21616 -0.785596
rclavicle -1.33136e-013 1.43125e-014
rhumerus 3.13387 38.1569 -96.9463
rradius 36.3956
rwrist -28.1854
rhand -16.867 5.24959
rfingers 7.12502
rthumb 9.36363 -24.5224
lclavicle -1.33136e-013 1.43125e-014
lhumerus -6.75131 -34.8694 96.5649
lradius 46.507
lwrist 50.8859
lhand -15.4753 36.7244
lfingers 7.12502
lthumb -169.294 -113.568
rfemur 1.11325 -5.16743 17.0679
rtibia 26.5685
rfoot 13.5643 -22.9046
rtoes 11.5466
lfemur -25.5615 -13.324 -10.3573
ltibia 20.4932
lfoot 5.70798 -37.0082
ltoes 19.8102
472
root -5.70632 18.2407 -2.27617 -164.126 26.3725 -173.98
lowerback -4.27645 8.00455 2.57279
upperback -3.82077 11.1423 4.01522
thorax -1.92292 5.7781 2.96939
lowerneck -19.7735 -3.05625 1.50943
upperneck 11.4712 -4.50311 -0.0913354
head 6.67479 -2.09948 -0.776263
rclavicle -1.16289e-014 -1.74931e-014
rhumerus 1.86923 38.1021 -97.6306
rradius 37.0503
rwrist -29.6014
rhand -15.8145 4.77366
rfingers 7.12502
rthumb 10.3791 -24.9502
lclavicle -1.16289e-014 -1.74931e-014
lhumerus -8.25592 -35.9669 96.6984
lradius 47.6394
lwrist 51.8488
lhand -15.1629 36.7357
lfingers 7.12502
lthumb -168.992 -113.573
rfemur 1.08543 -5.06895 16.9342
rtibia 26.6907
rfoot 14.1729 -22.3356
rtoes 9.55245
lfemur -25.3368 -13.1464 -10.4387
ltibia 20.5146
lfoot 4.99561 -36.9772
ltoes 18.7759
473
root -5.70743 18.2416 -2.26483 -164.114 26.9241 -173.929
lowerback -4.12234 7.91154 2.48003
upperback -3.89813 11.0359 4.04964
thorax -2.10824 5.72754 3.01684
lowerneck -19.5452 -2.8499 1.58678
upperneck 11.4479 -4.24073 -0.100997
head 6.63089 -1.97218 -0.758512
rclavicle -6.01324e-014 8.11041e-014
rhumerus 0.778309 38.4264 -98.165
rradius 37.6412
rwrist -31.7523
rhand -14.6712 4.04385
rfingers 7.12502
rthumb 11.4819 -25.6217
lclavicle -6.01324e-014 8.11041e-014
lhumerus -9.75895 -37.0828 96.8912
lradius 48.782
lwrist 53.0767
lhand -15.5856 36.5905
lfingers 7.12502
lthumb -169.4 -113.697
rfemur 0.898651 -4.83938 16.8159
rtibia 26.8595
rfoot 14.662 -21.8671
rtoes 8.08827
lfemur -25.1968 -12.8017 -10.52
ltibia 20.4878
lfoot 4.53583 -36.9609
ltoes 17.9489
474
root -5.70465 18.247 -2.25078 -163.854 27.3282 -173.88
lowerback -4.34117 7.74593 2.30697
upperback -3.97676 10.8188 4.07912
thorax -2.09765 5.6278 3.15934
lowerneck -19.4132 -2.58925 1.82547
upperneck 11.4068 -3.93022 -0.225573
head 6.59182 -1.82446 -0.800076
rclavicle 5.63555e-014 3.97569e-014
rhumerus -0.170748 38.8041 -98.7106
rradius 38.1554
rwrist -33.9045
rhand -13.5893 3.37186
rfingers 7.12502
rthumb 12.5251 -26.2328
lclavicle 5.63555e-014 3.97569e-014
lhumerus -11.1429 -38.2995 97.0596
lradius 49.8565
lwrist 54.3318
lhand -16.2113 36.6823
lfingers 7.12502
lthumb -170.004 -113.575
rfemur 0.560157 -4.70897 16.7921
rtibia 26.8302
rfoot 14.8273 -21.8208
rtoes 8.35257
lfemur -25.4544 -12.4799 -10.4805
ltibia 20.6391
lfoot 4.56437 -36.9344
ltoes 18.6402
475
root -5.69974 18.2536 -2.24103 -163.567 27.6314 -173.91
lowerback -4.69612 7.5363 2.05959
upperback -4.15786 10.5542 4.09429
thorax -2.12566 5.5109 3.33647
lowerneck -18.9699 -2.32916 2.15437
upperneck 11.2802 -3.62291 -0.434222
head 6.47197 -1.684 -0.878452
rclavicle -7.56127e-014 -1.27222e-014
rhumerus -1.44411 39.0515 -99.5178
rradius 38.571
rwrist -35.5334
rhand -12.9301 2.97007
rfingers 7.12502
rthumb 13.1606 -26.5946
lclavicle -7.56127e-014 -1.27222e-014
lhumerus -12.7593 -39.45 97.5249
lradius 50.8216
lwrist 55.3787
lhand -16.7446 37.0081
lfingers 7.12502
lthumb -170.518 -113.225
rfemur 0.237756 -4.74666 16.7146
rtibia 26.7081
rfoot 14.9871 -21.7839
rtoes 8.72474
lfemur -25.8473 -12.2847 -10.4702
ltibia 20.9205
lfoot 4.44578 -36.9222
ltoes 19.6019
476
root -5.70664 18.2407 -2.31718 -164.668 29.2791 -173.657
lowerback -4.12151 7.88301 2.67755
upperback -3.86446 10.9738 4.07481
thorax -2.04009 5.68532 2.94266
lowerneck -18.4579 -2.17061 2.4149
upperneck 11.4156 -3.45126 -0.530101
head 6.42832 -1.598 -0.927077
rclavicle 1.07393e-013 4.92986e-014
rhumerus -3.11222 39.388 -100.526
rradius 38.8745
rwrist -36.9631
rhand -12.957 2.86073
rfingers 7.12502
rthumb 13.1346 -26.7056
lclavicle 1.07393e-013 4.92986e-014
lhumerus -14.9313 -40.5737 98.5253
lradius 51.7185
lwrist 56.4173
lhand -17.2166 37.0057
lfingers 7.12502
lthumb -170.974 -113.207
rfemur 1.62423 -4.10917 15.9195
rtibia 26.4475
rfoot 15.7255 -20.5723
rtoes 7.34292
lfemur -23.986 -13.0485 -10.8478
ltibia 21.2841
lfoot -1.31248 -35.4314
ltoes 10.1834
477
root -5.70626 18.2469 -2.32879 -164.735 29.9652 -173.477
lowerback -4.46775 7.88832 2.78889
upperback -3.51877 10.9171 4.15102
thorax -1.48201 5.64988 3.04986
lowerneck -18.7356 -1.93871 2.65507
upperneck 11.4458 -3.1807 -0.704241
head 6.48109 -1.47134 -0.997204
rclavicle 7.34012e-014 3.81667e-014
rhumerus -3.57899 40.7268 -100.548
rradius 39.268
rwrist -38.6765
rhand -13.681 2.60525
rfingers 7.12502
rthumb 12.4366 -27.0047
lclavicle 7.34012e-014 3.81667e-014
lhumerus -15.8548 -41.5848 98.979
lradius 52.5562
lwrist 57.5901
lhand -18.1633 37.0876
lfingers 7.12502
lthumb -171.887 -113.088
rfemur 1.82503 -3.93368 15.7714
rtibia 26.2337
rfoot 15.6793 -20.5042
rtoes 8.362
lfemur -23.6019 -12.987 -10.8649
ltibia 21.579
lfoot -6.80622 -34.8613
ltoes -1.78469
